<svg height="1722" viewBox="0 0 278.339 191.54" width="2500" xmlns="http://www.w3.org/2000/svg"><g fill="#e23546" stroke-width="3.451"><path d="m156.268 11.177c-1.504 1.432-3.564 5.142-3.564 10.34v32.11c0 2.66-.987 5.203-2.571 6.642-.832.766-6.067 5.515-6.391 5.767h3.02c.914-.874 10.431-9.263 11.422-10.401 1.29-1.477 4.375-5.208 4.375-11.06 0-1.377.024-29.609.024-30.858 0-4.624 2.143-7.191 3.262-8.43 1.142-1.267 4.751-4.387 5.673-5.215l-2.978-.03c-.86.793-11.24 10.166-12.272 11.135m-23.562 116.884 11.65 10.184h7.813c7.93 0 15.177-3.403 19.97-8.193 4.786-4.79 6.553-11.212 6.553-17.23v-16.692c0-5.607-3.516-8.875-4.5-9.852-.535-.528-3.934-3.734-3.934-3.734v12.813s3.74 3.855 4.476 4.638c3.468 3.676 3.43 10.37-7.516 21.033-1.922 1.874-7.392 7.037-14.918 7.037h-19.594z"/><path d="m180.117 68.896s3.344 3.838 4.659 4.87c4.414 3.471 6.343-.494 3.51-5.032-.67-1.083-3.413-2.909-8.169.162m-14.997-9.326c-1.301 1.37-2.536 4.73-2.536 7.692v6.322h6.397c2.499 0 4.752-1.854 6.502-3.469.045-.086 0-6.277 0-6.277s1.639 1.884 3.099 3.406c2.15-1.963 7.688-7.754 11.715-7.754 8.158 0 6.308 10.225 2.968 13.514-1.077 1.063-5.887 5.476-7.381 6.891-3.845 3.668-10.446 1.915-10.446-7.557 0 0-7.07 6.715-8.14 7.602-1.08.894-4.714 4.759-4.714 4.759v16.654c0 7.988-2.426 10.866-4.811 13.071-1.063.98-9.649 8.769-11.198 10.132h-3.044s5.529-4.824 6.578-5.922c1.2-1.235 2.595-3.775 2.595-7.985 0-1.07-.131-26.168-.131-26.168h-40.903c-14.228 0-17.268-15.784-17.355-20.015-.027-1.242 0-13.855 0-15.815 0-2.602-1.66-6.97-4.317-8.32h4.01c.466.197 2.989 1.218 2.989 10.894 0 0-.173 11.268-.173 11.865 0 4.907 3.903 10.538 9.545 10.538 1.153 0 46.29-.044 46.29-.044.045-1.246 1.297-5.974 3.523-8.462 1.253-1.411 11.188-10.494 12.32-11.374l2.94-.031c-.432.41-5.252 4.72-6.322 5.853"/><path d="m130.673 98.874c0 2.23-7.132 8.175-7.55 8.582-.518-2.398-2.319-5.062-7.644-10.387l7.817-7.816c5.241 5.238 7.377 6.36 7.377 9.62m-13.672-45.971c-2.136 2.243-2.512 2.805-4.514 4.003h24.45c6.629 0 5.307-4.107 4.11-6.184-2.423-4.255-10.118-12.158-10.118-12.158l-13.929 14.339m27.227-43.605c1.57 1.573 4.945 5.814 2.92 7.84-1.791 1.79-4.562 4.631-4.562 4.631-.128-1.025-2.733-3.489-2.733-3.489s.024 7.55 0 8.482c-.083 3.403-1.37 4.38-1.37 4.38s6.298 6.249 6.298 14.276c0 3.896.01 7.47.01 8.237 0 1.653-.418 2.923-1.563 4.186-.566.631-6.395 6.494-7.285 7.295-1.691 1.522-3.465 1.777-4.797 1.777h-21.71c-3.415 0-6.939-2.664-6.939-5.338 0-.663.048-8.048.048-8.048 1.108 1.284 2.244 2.799 4.977 2.757 2.14-.038 4.379-1.708 4.986-2.315.614-.618 16.416-17.134 16.416-17.134s-7.395-6.86-12.275-10.124c-2.381-1.584-5.535.424-6.008 2.519-1.5 6.563 0 16.43 0 16.43s-4.831-4.828-5.994-5.985c-2.419-2.422-2.326-7.892.549-10.766.452-.46 4.83-5.397 10.397-5.397h8.665c5.812 0 12.082 5.69 12.082 5.69s.928-1.028.928-2.005c0-2.981-.02-10.925-.02-10.925-4.366-4.38-4.96-8.886-2.861-10.988 3.903-3.913 5.339-5.283 5.339-5.283s-.052 4.741 4.503 9.297"/><path d="m89.129 75.146h-4.014s4.317 2.374 4.317 8.482v19.508c0 12.692 10.474 24.432 23.197 24.432h10.625c6.377 0 8.617-1.543 12.475-4.97 1.408-1.252 3.247-3.316 3.93-4.068 2.22-2.488 4.58-4.497 4.58-11.036v-6.39c0-5.522-3.2-7.817-4.731-9.356-.99-.99-3.713-3.586-3.713-3.586v13.076s2.677 2.85 3.864 3.785c5.512 4.352 1.136 11.95-4.002 11.95l-23.335.01c-8.976 0-20.205-7.453-20.205-20.338v-10.605c0-10.894-2.988-10.894-2.988-10.894"/><path d="m114.706 98.912c0 2.23-7.14 8.165-7.557 8.579-.51-2.399-2.319-5.066-7.644-10.394l7.82-7.813c5.231 5.245 7.381 6.363 7.381 9.628m-81.74 86.816c-1.28 0-11.143-.01-12.502-.01-3.91 0-3.607-3.285-3.948-6.032v-17.979s2.74-.072 5.752-.072c3.475 0 7.813-.504 12.02 1.873 0 0-3.034-7.253-12.044-7.253h-5.728v-5.77s0-5.032-1.236-6.467l8.2.031c7.167.007 12.72-.11 18.496 3.679 0 0-1.108-9.445-14.99-9.445h-26.986s4.82 4.023 4.534 12.178l.287 32.662c0 8.268 3.213 8.403 3.213 8.403h26.582c6.045 0 8.147-4.238 8.147-6.609l.086-3.154c0 .003-1.915 3.965-9.883 3.965m70.743-2.781v-22.845c0-8.858-7.285-11.222-12.665-11.222-7.109 0-9.27 5.987-10.17 8.003-1.611-5.542-7.202-8.075-11.788-8.075-8.568 0-10.767 8.21-10.767 8.21s-.207-7.914-7.16-7.914l-6.781.014s3.896 1.619 3.896 8.462l-.004 25.367c0 8.458 3.4 8.54 3.4 8.54h11.25c-.297-.079-4.325-3.133-4.325-8.599v-22.503c.138-1.014 1.836-4.365 6.692-4.365 2.66 0 5.645 2.805 5.597 6.022l-.017 20.898c0 8.52 3.354 8.544 3.354 8.544h11.291s-4.324-3.02-4.324-8.616l-.034-22.503c.417-1.26 1.911-4.28 6.18-4.28 3.334 0 6.125 2.816 6.046 6.036 0 0-.024 19.076-.014 20.85.056 8.558 3.355 8.493 3.355 8.493 5.883 0 11.298.024 11.298.024s-4.31-2.975-4.31-8.541m54.143-30.64s-1.083-3.061-5.749-3.061c-7.057 0-8.775 8.344-8.775 8.344-.59-6.584-2.354-8.548-7.24-8.548l-6.812.007s3.958 1.64 3.958 8.462l-.02 25.415c0 8.458 3.385 8.538 3.385 8.538h11.142c-.286-.076-4.303-3.137-4.303-8.617l.014-20.774c.273-1.902 1.253-3.347 2.757-4.324 3.69-2.343 8.755-1.77 11.643 1.705zm52.153 1.543c3.817 0 6.66 1.652 6.66 1.652l.028-6.408h-9.4v-9.704s-2.437 4.307-7.527 8.427c-3.181 2.63-9.883 5.856-9.883 5.856l7.14.135-.017 29.474c0 8.171 3.43 8.171 3.43 8.171 6.153 0 11.125.021 11.125.021s-4.286-2.916-4.286-8.268l.018-29.38c2.902.016.873.023 2.712.023m27.186 10.098c1.863-3.444 3.327-12.147-3.04-11.664-7.299.541-5.894 20.087-5.894 20.087 2.419-2.67 6.087-3.213 8.934-8.423m6.905 2.715c-6.311 6.54-11.267 5.511-15.108 10.34 0 0 .618 6.518 5.529 8.823 1.708.787 8.65 3.006 13.133-4.828l-.01 7.444s-2.892 3.088-12.06 3.088c-10.936 0-18.507-8.64-18.507-20.356 0-11.53 6.173-22.238 17.71-22.29 11.415-.075 17.599 9.094 9.313 17.78m-120.766 16.27c0 5.632 4.33 8.551 4.33 8.551s-5.358-.024-11.249-.024c0 0-3.35.042-3.35-8.451v-.041l.013-25.454c0-6.691-3.892-8.417-3.892-8.417h6.711c2.395 0 7.403 0 7.403 9.48l-.018 24.322zm-5.231-37.283c2.902 0 5.259-2.243 5.259-5.086 0-2.844-2.357-5.142-5.26-5.142s-5.141 2.302-5.141 5.142 2.24 5.086 5.142 5.086m150.685 34.302c.082 3.002-2.585 6.967-8.293 6.967-5.594 0-8.054-6.011-8.054-6.011l-.045 7.584s4.148 3 10.625 3h-.003c7.716 0 15.325-5.791 15.09-13.887-.079-2.871-1.062-5.314-2.587-7.412-2.616-3.43-7.334-5.97-11.074-8.13-5.076-2.94-4.393-9.256 3.057-8.659 5.58.449 7.94 5.829 7.94 5.829v-7.068s-4.3-3.392-10.787-3.392c-6.74 0-12.73 4.459-12.56 10.128.148 5.018 2.187 8.286 6.307 11.281 1.633 1.222 3.575 2.392 5.825 3.651 3.292 1.805 4.5 4.034 4.559 6.119m-91.734-21.527c0 4.145-3.52 5.998-5.815 7.009-6.691 2.926-15.25 6.146-15.25 15.87 0 6.505 4.714 10.236 11.337 10.236 5.076 0 7.626-2.623 8.889-5.097.766 4.796 3.154 5.014 3.154 5.014 5.85 0 11.208.03 11.208.03s-4.368-2.963-4.368-8.523v-23.81c0-5.712-6.322-10.14-13.03-10.14-6.45 0-10.526 3.113-10.526 3.113v7.378s2.305-5.856 8.137-5.856c4.838 0 6.263 2.378 6.263 4.776m-6.073 28.232c-3.53 0-5.939-1.898-5.939-5.915 0-9.552 8.672-11.516 10.998-14.345l-.014 17.83c-.076.062-1.56 2.43-5.045 2.43"/></g></svg>